<svg xmlns="http://www.w3.org/2000/svg" width="839" height="848" viewBox="0 0 839 848"><rect width="839" height="848" fill="#fbfcfd"/><pattern id="fm" width="7" height="7" patternUnits="userSpaceOnUse" patternTransform="rotate(45)"><line x1="0" y1="0" x2="0" y2="7" stroke="#c9962a" stroke-width="2.4"/></pattern><pattern id="om" width="6" height="6" patternUnits="userSpaceOnUse" patternTransform="rotate(45)"><line x1="0" y1="0" x2="0" y2="6" stroke="#c0169a" stroke-width="1.6"/></pattern><pattern id="om" width="6" height="6" patternUnits="userSpaceOnUse" patternTransform="rotate(45)"><line x1="0" y1="0" x2="0" y2="6" stroke="#c0169a" stroke-width="1.6"/></pattern><text x="80.00" y="44.00" font-family="Helvetica,Arial,sans-serif" font-size="17" text-anchor="start" fill="#14181c" font-weight="bold">THE MOUNT, BOTH FACES — what sticks to which side</text><text x="80.00" y="68.00" font-family="Helvetica,Arial,sans-serif" font-size="11" text-anchor="start" fill="#6b757e" font-weight="normal">Shown flat. The two faces are mirror images, so the fridge-side view is mirrored — everything that touches paint is on that face.</text><path d="M639.2,637.6 L434.6,637.6 L434.6,433.0 L474.2,433.0 L474.2,150.0 L599.6,150.0 L599.6,433.0 L639.2,433.0 Z" fill="#e7ebee" stroke="#14181c" stroke-width="1.5"/><line x1="599.6" y1="266.1" x2="474.2" y2="266.1" stroke="#b00020" stroke-width="1.3" stroke-dasharray="8 5"/><text x="536.90" y="260.10" font-family="Helvetica,Arial,sans-serif" font-size="7.4" text-anchor="middle" fill="#b00020" font-weight="normal">bend</text><rect x="510.5" y="462.4" width="52.8" height="30.4" fill="#fff" stroke="#2b3036" stroke-width="1"/><rect x="510.5" y="577.9" width="52.8" height="30.4" fill="#fff" stroke="#2b3036" stroke-width="1"/><rect x="579.5" y="508.9" width="30.4" height="52.8" fill="#fff" stroke="#2b3036" stroke-width="1"/><rect x="464.0" y="508.9" width="30.4" height="52.8" fill="#fff" stroke="#2b3036" stroke-width="1"/><rect x="540.9" y="400.8" width="2.6" height="11.9" fill="#fff" stroke="#2b3036" stroke-width="1"/><rect x="530.3" y="400.8" width="2.6" height="11.9" fill="#fff" stroke="#2b3036" stroke-width="1"/><rect x="540.9" y="344.6" width="2.6" height="11.9" fill="#fff" stroke="#2b3036" stroke-width="1"/><rect x="530.3" y="344.6" width="2.6" height="11.9" fill="#fff" stroke="#2b3036" stroke-width="1"/><rect x="540.9" y="288.4" width="2.6" height="11.9" fill="#fff" stroke="#2b3036" stroke-width="1"/><rect x="530.3" y="288.4" width="2.6" height="11.9" fill="#fff" stroke="#2b3036" stroke-width="1"/><rect x="540.9" y="237.0" width="2.6" height="11.9" fill="#fff" stroke="#2b3036" stroke-width="1"/><rect x="530.3" y="237.0" width="2.6" height="11.9" fill="#fff" stroke="#2b3036" stroke-width="1"/><rect x="540.9" y="165.2" width="2.6" height="11.9" fill="#fff" stroke="#2b3036" stroke-width="1"/><rect x="530.3" y="165.2" width="2.6" height="11.9" fill="#fff" stroke="#2b3036" stroke-width="1"/><circle cx="536.9" cy="535.3" r="29.7" fill="#fff" stroke="#14181c" stroke-width="1.2"/><circle cx="569.9" cy="568.3" r="2.0" fill="#fff" stroke="#1a5fb4" stroke-width="1.4"/><circle cx="569.9" cy="502.3" r="2.0" fill="#fff" stroke="#1a5fb4" stroke-width="1.4"/><circle cx="503.9" cy="568.3" r="2.0" fill="#fff" stroke="#1a5fb4" stroke-width="1.4"/><circle cx="503.9" cy="502.3" r="2.0" fill="#fff" stroke="#1a5fb4" stroke-width="1.4"/><circle cx="602.9" cy="568.3" r="2.0" fill="#fff" stroke="#1a5fb4" stroke-width="1.4"/><circle cx="602.9" cy="502.3" r="2.0" fill="#fff" stroke="#1a5fb4" stroke-width="1.4"/><circle cx="470.9" cy="568.3" r="2.0" fill="#fff" stroke="#1a5fb4" stroke-width="1.4"/><circle cx="470.9" cy="502.3" r="2.0" fill="#fff" stroke="#1a5fb4" stroke-width="1.4"/><circle cx="569.9" cy="601.3" r="2.0" fill="#fff" stroke="#1a5fb4" stroke-width="1.4"/><circle cx="569.9" cy="469.3" r="2.0" fill="#fff" stroke="#1a5fb4" stroke-width="1.4"/><circle cx="503.9" cy="601.3" r="2.0" fill="#fff" stroke="#1a5fb4" stroke-width="1.4"/><circle cx="503.9" cy="469.3" r="2.0" fill="#fff" stroke="#1a5fb4" stroke-width="1.4"/><circle cx="602.9" cy="601.3" r="2.1" fill="#fff" stroke="#1a5fb4" stroke-width="1.4"/><circle cx="602.9" cy="469.3" r="2.1" fill="#fff" stroke="#1a5fb4" stroke-width="1.4"/><circle cx="470.9" cy="601.3" r="2.1" fill="#fff" stroke="#1a5fb4" stroke-width="1.4"/><circle cx="470.9" cy="469.3" r="2.1" fill="#fff" stroke="#1a5fb4" stroke-width="1.4"/><text x="536.90" y="116.00" font-family="Helvetica,Arial,sans-serif" font-size="13" text-anchor="middle" fill="#14181c" font-weight="bold">BACK — faces the fridge</text><text x="536.90" y="132.00" font-family="Helvetica,Arial,sans-serif" font-size="9.5" text-anchor="middle" fill="#6b757e" font-weight="normal">magnets · foam · pad</text><rect x="551.9" y="266.1" width="47.7" height="166.9" fill="url(#fm)" stroke="#c9962a" stroke-width="1" stroke-dasharray="5 3"/><rect x="474.2" y="266.1" width="47.7" height="166.9" fill="url(#fm)" stroke="#c9962a" stroke-width="1" stroke-dasharray="5 3"/><text x="575.74" y="291.51" font-family="Helvetica,Arial,sans-serif" font-size="9" text-anchor="middle" fill="#8a6a10" font-weight="bold">PAD</text><text x="575.74" y="303.51" font-family="Helvetica,Arial,sans-serif" font-size="8" text-anchor="middle" fill="#8a6a10" font-weight="normal">72 mm</text><text x="498.06" y="291.51" font-family="Helvetica,Arial,sans-serif" font-size="9" text-anchor="middle" fill="#8a6a10" font-weight="bold">PAD</text><text x="498.06" y="303.51" font-family="Helvetica,Arial,sans-serif" font-size="8" text-anchor="middle" fill="#8a6a10" font-weight="normal">72 mm</text><text x="532.27" y="378.63" font-family="Helvetica,Arial,sans-serif" font-size="7.753846153846152" text-anchor="middle" fill="#4a5560" font-weight="bold" transform="rotate(-90.0 532.27 378.63)">45 mm CLEAR</text><text x="541.53" y="378.63" font-family="Helvetica,Arial,sans-serif" font-size="6.513230769230767" text-anchor="middle" fill="#6b757e" font-weight="normal" transform="rotate(-90.0 541.53 378.63)">straps feed here</text><circle cx="618.1" cy="616.5" r="15.8" fill="#c0169a" fill-opacity="0.22" stroke="#c0169a" stroke-width="1.2"/><circle cx="618.1" cy="616.5" r="2.8" fill="none" stroke="#14181c" stroke-width="1.1" stroke-dasharray="3 2.5" opacity="0.85"/><circle cx="618.1" cy="454.1" r="15.8" fill="#c0169a" fill-opacity="0.22" stroke="#c0169a" stroke-width="1.2"/><circle cx="618.1" cy="454.1" r="2.8" fill="none" stroke="#14181c" stroke-width="1.1" stroke-dasharray="3 2.5" opacity="0.85"/><circle cx="455.7" cy="616.5" r="15.8" fill="#c0169a" fill-opacity="0.22" stroke="#c0169a" stroke-width="1.2"/><circle cx="455.7" cy="616.5" r="2.8" fill="none" stroke="#14181c" stroke-width="1.1" stroke-dasharray="3 2.5" opacity="0.85"/><circle cx="455.7" cy="454.1" r="15.8" fill="#c0169a" fill-opacity="0.22" stroke="#c0169a" stroke-width="1.2"/><circle cx="455.7" cy="454.1" r="2.8" fill="none" stroke="#14181c" stroke-width="1.1" stroke-dasharray="3 2.5" opacity="0.85"/><circle cx="536.9" cy="209.4" r="15.8" fill="url(#om)" fill-opacity="0.45" stroke="#c0169a" stroke-width="1.2" stroke-dasharray="5 4" opacity="0.55"/><circle cx="536.9" cy="209.4" r="2.8" fill="none" stroke="#14181c" stroke-width="1.1" stroke-dasharray="3 2.5" opacity="0.85"/><circle cx="576.5" cy="245.0" r="15.8" fill="#c0169a" fill-opacity="0.22" stroke="#c0169a" stroke-width="1.2"/><circle cx="576.5" cy="245.0" r="2.8" fill="none" stroke="#14181c" stroke-width="1.1" stroke-dasharray="3 2.5" opacity="0.85"/><circle cx="497.3" cy="245.0" r="15.8" fill="#c0169a" fill-opacity="0.22" stroke="#c0169a" stroke-width="1.2"/><circle cx="497.3" cy="245.0" r="2.8" fill="none" stroke="#14181c" stroke-width="1.1" stroke-dasharray="3 2.5" opacity="0.85"/><circle cx="576.5" cy="173.8" r="15.8" fill="#c0169a" fill-opacity="0.22" stroke="#c0169a" stroke-width="1.2"/><circle cx="576.5" cy="173.8" r="2.8" fill="none" stroke="#14181c" stroke-width="1.1" stroke-dasharray="3 2.5" opacity="0.85"/><circle cx="497.3" cy="173.8" r="15.8" fill="#c0169a" fill-opacity="0.22" stroke="#c0169a" stroke-width="1.2"/><circle cx="497.3" cy="173.8" r="2.8" fill="none" stroke="#14181c" stroke-width="1.1" stroke-dasharray="3 2.5" opacity="0.85"/><circle cx="576.5" cy="209.4" r="15.8" fill="url(#om)" fill-opacity="0.45" stroke="#c0169a" stroke-width="1.2" stroke-dasharray="5 4" opacity="0.55"/><circle cx="576.5" cy="209.4" r="2.8" fill="none" stroke="#14181c" stroke-width="1.1" stroke-dasharray="3 2.5" opacity="0.85"/><circle cx="497.3" cy="209.4" r="15.8" fill="url(#om)" fill-opacity="0.45" stroke="#c0169a" stroke-width="1.2" stroke-dasharray="5 4" opacity="0.55"/><circle cx="497.3" cy="209.4" r="2.8" fill="none" stroke="#14181c" stroke-width="1.1" stroke-dasharray="3 2.5" opacity="0.85"/><circle cx="536.9" cy="616.5" r="15.8" fill="url(#om)" fill-opacity="0.45" stroke="#c0169a" stroke-width="1.2" stroke-dasharray="5 4" opacity="0.55"/><circle cx="536.9" cy="616.5" r="2.8" fill="none" stroke="#14181c" stroke-width="1.1" stroke-dasharray="3 2.5" opacity="0.85"/><circle cx="536.9" cy="454.1" r="15.8" fill="url(#om)" fill-opacity="0.45" stroke="#c0169a" stroke-width="1.2" stroke-dasharray="5 4" opacity="0.55"/><circle cx="536.9" cy="454.1" r="2.8" fill="none" stroke="#14181c" stroke-width="1.1" stroke-dasharray="3 2.5" opacity="0.85"/><circle cx="618.1" cy="535.3" r="15.8" fill="url(#om)" fill-opacity="0.45" stroke="#c0169a" stroke-width="1.2" stroke-dasharray="5 4" opacity="0.55"/><circle cx="618.1" cy="535.3" r="2.8" fill="none" stroke="#14181c" stroke-width="1.1" stroke-dasharray="3 2.5" opacity="0.85"/><circle cx="455.7" cy="535.3" r="15.8" fill="url(#om)" fill-opacity="0.45" stroke="#c0169a" stroke-width="1.2" stroke-dasharray="5 4" opacity="0.55"/><circle cx="455.7" cy="535.3" r="2.8" fill="none" stroke="#14181c" stroke-width="1.1" stroke-dasharray="3 2.5" opacity="0.85"/><text x="536.90" y="671.61" font-family="Helvetica,Arial,sans-serif" font-size="9.0" text-anchor="middle" fill="#6b757e" font-weight="normal">8 FITTED (solid) stand 11.5 mm proud — they set the gap the foam fills</text><text x="536.90" y="687.61" font-family="Helvetica,Arial,sans-serif" font-size="9.0" text-anchor="middle" fill="#8c1070" font-weight="bold">7 HASHED = ADDITIONAL IF NEEDED — holes cut, magnets not bought</text><text x="536.90" y="735.61" font-family="Helvetica,Arial,sans-serif" font-size="8.4" text-anchor="middle" fill="#6b757e" font-weight="normal">arm fit order if fitting fewer: FRONT row first (4x the back row against a tip lift), then BACK, then MIDDLE</text><text x="536.90" y="719.61" font-family="Helvetica,Arial,sans-serif" font-size="8.4" text-anchor="middle" fill="#6b757e" font-weight="normal">each mid-side addition covers ~11.5 mm of a vent window — accepted</text><text x="536.90" y="703.61" font-family="Helvetica,Arial,sans-serif" font-size="9.0" text-anchor="middle" fill="#6b757e" font-weight="normal">ONE pad stock 11.5 mm (0.453 in) — arm, neck and bottom alike, matched to the magnet</text><path d="M80.0,637.6 L284.6,637.6 L284.6,433.0 L245.0,433.0 L245.0,150.0 L119.6,150.0 L119.6,433.0 L80.0,433.0 Z" fill="#e7ebee" stroke="#14181c" stroke-width="1.5"/><line x1="119.6" y1="266.1" x2="245.0" y2="266.1" stroke="#b00020" stroke-width="1.3" stroke-dasharray="8 5"/><text x="182.30" y="260.10" font-family="Helvetica,Arial,sans-serif" font-size="7.4" text-anchor="middle" fill="#b00020" font-weight="normal">bend</text><rect x="155.9" y="462.4" width="52.8" height="30.4" fill="#fff" stroke="#2b3036" stroke-width="1"/><rect x="155.9" y="577.9" width="52.8" height="30.4" fill="#fff" stroke="#2b3036" stroke-width="1"/><rect x="109.4" y="508.9" width="30.4" height="52.8" fill="#fff" stroke="#2b3036" stroke-width="1"/><rect x="224.9" y="508.9" width="30.4" height="52.8" fill="#fff" stroke="#2b3036" stroke-width="1"/><rect x="175.7" y="400.8" width="2.6" height="11.9" fill="#fff" stroke="#2b3036" stroke-width="1"/><rect x="186.3" y="400.8" width="2.6" height="11.9" fill="#fff" stroke="#2b3036" stroke-width="1"/><rect x="175.7" y="344.6" width="2.6" height="11.9" fill="#fff" stroke="#2b3036" stroke-width="1"/><rect x="186.3" y="344.6" width="2.6" height="11.9" fill="#fff" stroke="#2b3036" stroke-width="1"/><rect x="175.7" y="288.4" width="2.6" height="11.9" fill="#fff" stroke="#2b3036" stroke-width="1"/><rect x="186.3" y="288.4" width="2.6" height="11.9" fill="#fff" stroke="#2b3036" stroke-width="1"/><rect x="175.7" y="237.0" width="2.6" height="11.9" fill="#fff" stroke="#2b3036" stroke-width="1"/><rect x="186.3" y="237.0" width="2.6" height="11.9" fill="#fff" stroke="#2b3036" stroke-width="1"/><rect x="175.7" y="165.2" width="2.6" height="11.9" fill="#fff" stroke="#2b3036" stroke-width="1"/><rect x="186.3" y="165.2" width="2.6" height="11.9" fill="#fff" stroke="#2b3036" stroke-width="1"/><circle cx="182.3" cy="535.3" r="29.7" fill="#fff" stroke="#14181c" stroke-width="1.2"/><circle cx="149.3" cy="568.3" r="2.0" fill="#fff" stroke="#1a5fb4" stroke-width="1.4"/><circle cx="149.3" cy="502.3" r="2.0" fill="#fff" stroke="#1a5fb4" stroke-width="1.4"/><circle cx="215.3" cy="568.3" r="2.0" fill="#fff" stroke="#1a5fb4" stroke-width="1.4"/><circle cx="215.3" cy="502.3" r="2.0" fill="#fff" stroke="#1a5fb4" stroke-width="1.4"/><circle cx="116.3" cy="568.3" r="2.0" fill="#fff" stroke="#1a5fb4" stroke-width="1.4"/><circle cx="116.3" cy="502.3" r="2.0" fill="#fff" stroke="#1a5fb4" stroke-width="1.4"/><circle cx="248.3" cy="568.3" r="2.0" fill="#fff" stroke="#1a5fb4" stroke-width="1.4"/><circle cx="248.3" cy="502.3" r="2.0" fill="#fff" stroke="#1a5fb4" stroke-width="1.4"/><circle cx="149.3" cy="601.3" r="2.0" fill="#fff" stroke="#1a5fb4" stroke-width="1.4"/><circle cx="149.3" cy="469.3" r="2.0" fill="#fff" stroke="#1a5fb4" stroke-width="1.4"/><circle cx="215.3" cy="601.3" r="2.0" fill="#fff" stroke="#1a5fb4" stroke-width="1.4"/><circle cx="215.3" cy="469.3" r="2.0" fill="#fff" stroke="#1a5fb4" stroke-width="1.4"/><circle cx="116.3" cy="601.3" r="2.1" fill="#fff" stroke="#1a5fb4" stroke-width="1.4"/><circle cx="116.3" cy="469.3" r="2.1" fill="#fff" stroke="#1a5fb4" stroke-width="1.4"/><circle cx="248.3" cy="601.3" r="2.1" fill="#fff" stroke="#1a5fb4" stroke-width="1.4"/><circle cx="248.3" cy="469.3" r="2.1" fill="#fff" stroke="#1a5fb4" stroke-width="1.4"/><text x="182.30" y="116.00" font-family="Helvetica,Arial,sans-serif" font-size="13" text-anchor="middle" fill="#14181c" font-weight="bold">FRONT — faces the display</text><text x="182.30" y="132.00" font-family="Helvetica,Arial,sans-serif" font-size="9.5" text-anchor="middle" fill="#6b757e" font-weight="normal">VESA screws · magnet screw heads · magnets ghosted behind</text><circle cx="101.1" cy="616.5" r="15.8" fill="none" stroke="#c0169a" stroke-width="1.1" stroke-dasharray="5 4" opacity="0.6"/><circle cx="101.1" cy="454.1" r="15.8" fill="none" stroke="#c0169a" stroke-width="1.1" stroke-dasharray="5 4" opacity="0.6"/><circle cx="263.5" cy="616.5" r="15.8" fill="none" stroke="#c0169a" stroke-width="1.1" stroke-dasharray="5 4" opacity="0.6"/><circle cx="263.5" cy="454.1" r="15.8" fill="none" stroke="#c0169a" stroke-width="1.1" stroke-dasharray="5 4" opacity="0.6"/><circle cx="182.3" cy="209.4" r="15.8" fill="url(#om)" fill-opacity="0.30" stroke="#c0169a" stroke-width="1.1" stroke-dasharray="5 4" opacity="0.45"/><circle cx="142.7" cy="245.0" r="15.8" fill="none" stroke="#c0169a" stroke-width="1.1" stroke-dasharray="5 4" opacity="0.6"/><circle cx="221.9" cy="245.0" r="15.8" fill="none" stroke="#c0169a" stroke-width="1.1" stroke-dasharray="5 4" opacity="0.6"/><circle cx="142.7" cy="173.8" r="15.8" fill="none" stroke="#c0169a" stroke-width="1.1" stroke-dasharray="5 4" opacity="0.6"/><circle cx="221.9" cy="173.8" r="15.8" fill="none" stroke="#c0169a" stroke-width="1.1" stroke-dasharray="5 4" opacity="0.6"/><circle cx="142.7" cy="209.4" r="15.8" fill="url(#om)" fill-opacity="0.30" stroke="#c0169a" stroke-width="1.1" stroke-dasharray="5 4" opacity="0.45"/><circle cx="221.9" cy="209.4" r="15.8" fill="url(#om)" fill-opacity="0.30" stroke="#c0169a" stroke-width="1.1" stroke-dasharray="5 4" opacity="0.45"/><circle cx="182.3" cy="616.5" r="15.8" fill="url(#om)" fill-opacity="0.30" stroke="#c0169a" stroke-width="1.1" stroke-dasharray="5 4" opacity="0.45"/><circle cx="182.3" cy="454.1" r="15.8" fill="url(#om)" fill-opacity="0.30" stroke="#c0169a" stroke-width="1.1" stroke-dasharray="5 4" opacity="0.45"/><circle cx="101.1" cy="535.3" r="15.8" fill="url(#om)" fill-opacity="0.30" stroke="#c0169a" stroke-width="1.1" stroke-dasharray="5 4" opacity="0.45"/><circle cx="263.5" cy="535.3" r="15.8" fill="url(#om)" fill-opacity="0.30" stroke="#c0169a" stroke-width="1.1" stroke-dasharray="5 4" opacity="0.45"/><circle cx="101.1" cy="616.5" r="2.8" fill="#fff" stroke="#c0169a" stroke-width="1.3"/><circle cx="101.1" cy="454.1" r="2.8" fill="#fff" stroke="#c0169a" stroke-width="1.3"/><circle cx="263.5" cy="616.5" r="2.8" fill="#fff" stroke="#c0169a" stroke-width="1.3"/><circle cx="263.5" cy="454.1" r="2.8" fill="#fff" stroke="#c0169a" stroke-width="1.3"/><circle cx="182.3" cy="209.4" r="2.8" fill="#fff" stroke="#c0169a" stroke-width="1.3"/><circle cx="142.7" cy="245.0" r="2.8" fill="#fff" stroke="#c0169a" stroke-width="1.3"/><circle cx="221.9" cy="245.0" r="2.8" fill="#fff" stroke="#c0169a" stroke-width="1.3"/><circle cx="142.7" cy="173.8" r="2.8" fill="#fff" stroke="#c0169a" stroke-width="1.3"/><circle cx="221.9" cy="173.8" r="2.8" fill="#fff" stroke="#c0169a" stroke-width="1.3"/><circle cx="142.7" cy="209.4" r="2.8" fill="#fff" stroke="#c0169a" stroke-width="1.3"/><circle cx="221.9" cy="209.4" r="2.8" fill="#fff" stroke="#c0169a" stroke-width="1.3"/><circle cx="182.3" cy="616.5" r="2.8" fill="#fff" stroke="#c0169a" stroke-width="1.3"/><circle cx="182.3" cy="454.1" r="2.8" fill="#fff" stroke="#c0169a" stroke-width="1.3"/><circle cx="101.1" cy="535.3" r="2.8" fill="#fff" stroke="#c0169a" stroke-width="1.3"/><circle cx="263.5" cy="535.3" r="2.8" fill="#fff" stroke="#c0169a" stroke-width="1.3"/><text x="182.30" y="671.61" font-family="Helvetica,Arial,sans-serif" font-size="9.0" text-anchor="middle" fill="#6b757e" font-weight="normal">NO spacers — the display bolts straight to the plate</text><text x="182.30" y="687.61" font-family="Helvetica,Arial,sans-serif" font-size="9.0" text-anchor="middle" fill="#6b757e" font-weight="normal">vent windows and the centre opening stay clear on BOTH faces</text><text x="182.30" y="703.61" font-family="Helvetica,Arial,sans-serif" font-size="9.0" text-anchor="middle" fill="#6b757e" font-weight="normal">magnet screw heads land on this face — nothing may sit flat over them</text><text x="182.30" y="719.61" font-family="Helvetica,Arial,sans-serif" font-size="8.6" text-anchor="middle" fill="#8c1070" font-weight="normal">dashed = magnet discs BEHIND the plate. None of them shows from this side.</text></svg>