<svg xmlns="http://www.w3.org/2000/svg" width="1200" height="776" viewBox="0 0 1200 776"><rect width="1200" height="776" fill="#fbfcfd"/><text x="40.00" y="46.00" font-family="Helvetica,Arial,sans-serif" font-size="19" text-anchor="start" fill="#14181c" font-weight="bold">THE FASTENER SANDWICH AT ONE MAGNET</text><text x="40.00" y="70.00" font-family="Helvetica,Arial,sans-serif" font-size="12" text-anchor="start" fill="#6b757e" font-weight="normal">True section through one magnet position, drawn at one scale on both axes - 4.6 px/mm across AND through. One drawing per distinct stack shape.</text><text x="40.00" y="90.00" font-family="Helvetica,Arial,sans-serif" font-size="12" text-anchor="start" fill="#6b757e" font-weight="normal">Plate 4.75 mm (0.187 in), hole O7.0 mm, stud a fixed 9.53 mm (0.375 in). Change any of those and every panel here changes with it.</text><text x="40.00" y="112.00" font-family="Helvetica,Arial,sans-serif" font-size="12" text-anchor="start" fill="#8a5a00" font-weight="bold">The orange band is where that part actually touches the plate. M6 nut and washer heights are DIN nominal; McMaster part numbers are NOT VERIFIED (2026-09-02).</text><text x="40.00" y="132.00" font-family="Helvetica,Arial,sans-serif" font-size="11.5" text-anchor="start" fill="#6b757e" font-weight="normal">Washer thickness is the MAX of the range it is sold to - every stack is checked against the thickest one that might ship.</text><text x="40.00" y="154.00" font-family="Helvetica,Arial,sans-serif" font-size="11.5" text-anchor="start" fill="#6b757e" font-weight="normal">Showing the 2 stack shapes that fit or are marginal, out of 24 permutations. Threadlocker changes locking, not geometry, so it has no separate panel - see fastener_matrix.svg for all of them.</text><rect x="40.0" y="190.0" width="548.0" height="30" rx="4" fill="#eef7f2" stroke="#0a8f6f" stroke-width="2.2"/><text x="52.00" y="210.00" font-family="Helvetica,Arial,sans-serif" font-size="11.5" text-anchor="start" fill="#0a8f6f" font-weight="bold">THIN hex jam nut, 18-8 (McMaster 91847A029, 100/pk $6.75)</text><text x="576.00" y="210.00" font-family="Helvetica,Arial,sans-serif" font-size="11" text-anchor="end" fill="#0a8f6f" font-weight="bold">+0.81 mm to spare</text><rect x="74.00" y="242.00" width="7.14" height="128.80" fill="#3a3734" stroke="#14181c" stroke-width="0.9"/><line x1="72.00" y1="246.00" x2="83.14" y2="240.00" stroke="#fbfcfd" stroke-width="3.2"/><line x1="72.00" y1="247.00" x2="83.14" y2="241.00" stroke="#6b757e" stroke-width="0.8"/><line x1="72.00" y1="243.00" x2="83.14" y2="237.00" stroke="#6b757e" stroke-width="0.8"/><rect x="74.00" y="370.80" width="7.14" height="128.80" fill="#3a3734" stroke="#14181c" stroke-width="0.9"/><line x1="72.00" y1="495.60" x2="83.14" y2="501.60" stroke="#fbfcfd" stroke-width="3.2"/><line x1="72.00" y1="494.60" x2="83.14" y2="500.60" stroke="#6b757e" stroke-width="0.8"/><line x1="72.00" y1="498.60" x2="83.14" y2="504.60" stroke="#6b757e" stroke-width="0.8"/><rect x="81.14" y="296.85" width="36.52" height="57.84" fill="#e7b6dd" stroke="#14181c" stroke-width="0.9"/><rect x="81.14" y="386.90" width="36.52" height="57.84" fill="#e7b6dd" stroke="#14181c" stroke-width="0.9"/><rect x="117.66" y="242.00" width="21.85" height="112.70" fill="#b9c2c9" stroke="#14181c" stroke-width="0.9"/><line x1="115.66" y1="246.00" x2="141.51" y2="240.00" stroke="#fbfcfd" stroke-width="3.2"/><line x1="115.66" y1="247.00" x2="141.51" y2="241.00" stroke="#6b757e" stroke-width="0.8"/><line x1="115.66" y1="243.00" x2="141.51" y2="237.00" stroke="#6b757e" stroke-width="0.8"/><rect x="117.66" y="386.90" width="21.85" height="112.70" fill="#b9c2c9" stroke="#14181c" stroke-width="0.9"/><line x1="115.66" y1="495.60" x2="141.51" y2="501.60" stroke="#fbfcfd" stroke-width="3.2"/><line x1="115.66" y1="494.60" x2="141.51" y2="500.60" stroke="#6b757e" stroke-width="0.8"/><line x1="115.66" y1="498.60" x2="141.51" y2="504.60" stroke="#6b757e" stroke-width="0.8"/><rect x="139.51" y="345.24" width="18.26" height="7.30" fill="#9aa6ae" stroke="#14181c" stroke-width="0.9"/><rect x="139.51" y="389.06" width="18.26" height="7.30" fill="#9aa6ae" stroke="#14181c" stroke-width="0.9"/><rect x="117.66" y="352.54" width="43.84" height="36.51" fill="#c9a227" fill-opacity="0.8" stroke="#6d5300" stroke-width="1.0"/><line x1="161.50" y1="238.00" x2="161.50" y2="499.60" stroke="#b00020" stroke-width="1.5" stroke-dasharray="5 4"/><text x="165.50" y="236.00" font-family="Helvetica,Arial,sans-serif" font-size="9.0" text-anchor="start" fill="#b00020" font-weight="bold">stud ends here</text><line x1="117.66" y1="354.70" x2="139.51" y2="354.70" stroke="#b00020" stroke-width="1.2"/><line x1="117.66" y1="386.90" x2="139.51" y2="386.90" stroke="#b00020" stroke-width="1.2"/><rect x="137.01" y="345.24" width="5" height="9.46" fill="#f0a202"/><rect x="137.01" y="386.90" width="5" height="9.46" fill="#f0a202"/><rect x="115.16" y="296.85" width="5" height="57.84" fill="#f0a202" fill-opacity="0.45"/><rect x="115.16" y="386.90" width="5" height="57.84" fill="#f0a202" fill-opacity="0.45"/><text x="346.00" y="294.80" font-family="Helvetica,Arial,sans-serif" font-size="9.5" text-anchor="start" fill="#6b757e" font-weight="bold">PARTS IN THIS STACK</text><rect x="346.0" y="300.8" width="11" height="11" fill="#e7b6dd" stroke="#14181c" stroke-width="0.8"/><text x="364.00" y="309.80" font-family="Helvetica,Arial,sans-serif" font-size="10.0" text-anchor="start" fill="#14181c" font-weight="bold">MAGNET pot</text><text x="364.00" y="322.80" font-family="Helvetica,Arial,sans-serif" font-size="9.0" text-anchor="start" fill="#6b757e" font-weight="normal">O32.15 x 7.94 mm</text><text x="576.00" y="309.80" font-family="Helvetica,Arial,sans-serif" font-size="10.0" text-anchor="end" fill="#14181c" font-weight="bold">3506K64</text><text x="576.00" y="322.80" font-family="Helvetica,Arial,sans-serif" font-size="8.5" text-anchor="end" fill="#6b757e" font-weight="normal">zinc case - never black</text><rect x="346.0" y="334.8" width="11" height="11" fill="#b9c2c9" stroke="#14181c" stroke-width="0.8"/><text x="364.00" y="343.80" font-family="Helvetica,Arial,sans-serif" font-size="10.0" text-anchor="start" fill="#14181c" font-weight="bold">PLATE</text><text x="364.00" y="356.80" font-family="Helvetica,Arial,sans-serif" font-size="9.0" text-anchor="start" fill="#6b757e" font-weight="normal">4.75 mm (0.187 in)</text><text x="576.00" y="343.80" font-family="Helvetica,Arial,sans-serif" font-size="10.0" text-anchor="end" fill="#6b757e" font-weight="normal">this DXF</text><rect x="346.0" y="368.8" width="11" height="11" fill="#9aa6ae" stroke="#14181c" stroke-width="0.8"/><text x="364.00" y="377.80" font-family="Helvetica,Arial,sans-serif" font-size="10.0" text-anchor="start" fill="#14181c" font-weight="bold">NUT</text><text x="364.00" y="390.80" font-family="Helvetica,Arial,sans-serif" font-size="9.0" text-anchor="start" fill="#6b757e" font-weight="normal">11.11 mm AF x 3.97 mm</text><text x="576.00" y="377.80" font-family="Helvetica,Arial,sans-serif" font-size="10.0" text-anchor="end" fill="#14181c" font-weight="bold">98514A029</text><text x="576.00" y="390.80" font-family="Helvetica,Arial,sans-serif" font-size="8.5" text-anchor="end" fill="#6b757e" font-weight="normal">black oxide</text><line x1="236.00" y1="354.70" x2="236.00" y2="386.90" stroke="#b00020" stroke-width="0.9"/><line x1="232.00" y1="354.70" x2="240.00" y2="354.70" stroke="#b00020" stroke-width="1.1"/><line x1="232.00" y1="386.90" x2="240.00" y2="386.90" stroke="#b00020" stroke-width="1.1"/><text x="232.00" y="370.80" font-family="Helvetica,Arial,sans-serif" font-size="9.0" text-anchor="middle" fill="#b00020" font-weight="bold" transform="rotate(-90.0 232.00 370.80)">HOLE O7.0</text><line x1="276.00" y1="345.24" x2="276.00" y2="396.36" stroke="#8a5a00" stroke-width="0.9"/><line x1="272.00" y1="345.24" x2="280.00" y2="345.24" stroke="#8a5a00" stroke-width="1.1"/><line x1="272.00" y1="396.36" x2="280.00" y2="396.36" stroke="#8a5a00" stroke-width="1.1"/><text x="272.00" y="370.80" font-family="Helvetica,Arial,sans-serif" font-size="9.0" text-anchor="middle" fill="#8a5a00" font-weight="bold" transform="rotate(-90.0 272.00 370.80)">nut 11.11</text><line x1="320.00" y1="296.85" x2="320.00" y2="444.74" stroke="#6b757e" stroke-width="0.9"/><line x1="316.00" y1="296.85" x2="324.00" y2="296.85" stroke="#6b757e" stroke-width="1.1"/><line x1="316.00" y1="444.74" x2="324.00" y2="444.74" stroke="#6b757e" stroke-width="1.1"/><text x="316.00" y="370.80" font-family="Helvetica,Arial,sans-serif" font-size="9.0" text-anchor="middle" fill="#6b757e" font-weight="bold" transform="rotate(-90.0 316.00 370.80)">magnet O32.15</text><rect x="40.0" y="550.6" width="548.0" height="52" rx="3" fill="#f4f6f8"/><rect x="50.0" y="558.6" width="10" height="10" fill="#f0a202"/><text x="66.00" y="567.60" font-family="Helvetica,Arial,sans-serif" font-size="10.5" text-anchor="start" fill="#6b757e" font-weight="normal">bears on the plate over</text><text x="208.00" y="567.60" font-family="Helvetica,Arial,sans-serif" font-size="11.5" text-anchor="start" fill="#14181c" font-weight="bold">59 mm2 (0.09 in2)</text><text x="576.00" y="567.60" font-family="Helvetica,Arial,sans-serif" font-size="9.5" text-anchor="end" fill="#6b757e" font-weight="normal">4.75 + 0.00 + 3.97 = 8.72 vs stud 9.53</text><text x="66.00" y="587.60" font-family="Helvetica,Arial,sans-serif" font-size="10.5" text-anchor="start" fill="#6b757e" font-weight="normal">contact pressure at magnet pull</text><text x="250.00" y="587.60" font-family="Helvetica,Arial,sans-serif" font-size="11.5" text-anchor="start" fill="#14181c" font-weight="bold">289 psi</text><text x="576.00" y="587.60" font-family="Helvetica,Arial,sans-serif" font-size="9.5" text-anchor="end" fill="#14181c" font-weight="bold">locking: chemical</text><rect x="612.0" y="190.0" width="548.0" height="30" rx="4" fill="#fdf6e6" stroke="#b8860b" stroke-width="1.3"/><text x="624.00" y="210.00" font-family="Helvetica,Arial,sans-serif" font-size="8.5" text-anchor="start" fill="#b8860b" font-weight="bold">THIN nylon-insert locknut, 18-8 (McMaster 90101A230, 50/pk $7.72)</text><text x="1148.00" y="210.00" font-family="Helvetica,Arial,sans-serif" font-size="11" text-anchor="end" fill="#b8860b" font-weight="bold">-0.38 mm — TOLERANCE STACK</text><rect x="646.00" y="242.00" width="7.14" height="128.80" fill="#3a3734" stroke="#14181c" stroke-width="0.9"/><line x1="644.00" y1="246.00" x2="655.14" y2="240.00" stroke="#fbfcfd" stroke-width="3.2"/><line x1="644.00" y1="247.00" x2="655.14" y2="241.00" stroke="#6b757e" stroke-width="0.8"/><line x1="644.00" y1="243.00" x2="655.14" y2="237.00" stroke="#6b757e" stroke-width="0.8"/><rect x="646.00" y="370.80" width="7.14" height="128.80" fill="#3a3734" stroke="#14181c" stroke-width="0.9"/><line x1="644.00" y1="495.60" x2="655.14" y2="501.60" stroke="#fbfcfd" stroke-width="3.2"/><line x1="644.00" y1="494.60" x2="655.14" y2="500.60" stroke="#6b757e" stroke-width="0.8"/><line x1="644.00" y1="498.60" x2="655.14" y2="504.60" stroke="#6b757e" stroke-width="0.8"/><rect x="653.14" y="296.85" width="36.52" height="57.84" fill="#e7b6dd" stroke="#14181c" stroke-width="0.9"/><rect x="653.14" y="386.90" width="36.52" height="57.84" fill="#e7b6dd" stroke="#14181c" stroke-width="0.9"/><rect x="689.66" y="242.00" width="21.85" height="112.70" fill="#b9c2c9" stroke="#14181c" stroke-width="0.9"/><line x1="687.66" y1="246.00" x2="713.51" y2="240.00" stroke="#fbfcfd" stroke-width="3.2"/><line x1="687.66" y1="247.00" x2="713.51" y2="241.00" stroke="#6b757e" stroke-width="0.8"/><line x1="687.66" y1="243.00" x2="713.51" y2="237.00" stroke="#6b757e" stroke-width="0.8"/><rect x="689.66" y="386.90" width="21.85" height="112.70" fill="#b9c2c9" stroke="#14181c" stroke-width="0.9"/><line x1="687.66" y1="495.60" x2="713.51" y2="501.60" stroke="#fbfcfd" stroke-width="3.2"/><line x1="687.66" y1="494.60" x2="713.51" y2="500.60" stroke="#6b757e" stroke-width="0.8"/><line x1="687.66" y1="498.60" x2="713.51" y2="504.60" stroke="#6b757e" stroke-width="0.8"/><rect x="711.51" y="345.24" width="23.73" height="7.30" fill="#9aa6ae" stroke="#14181c" stroke-width="0.9"/><rect x="711.51" y="389.06" width="23.73" height="7.30" fill="#9aa6ae" stroke="#14181c" stroke-width="0.9"/><rect x="689.66" y="352.54" width="43.84" height="36.51" fill="#c9a227" fill-opacity="0.8" stroke="#6d5300" stroke-width="1.0"/><line x1="733.50" y1="238.00" x2="733.50" y2="499.60" stroke="#b00020" stroke-width="1.5" stroke-dasharray="5 4"/><text x="737.50" y="236.00" font-family="Helvetica,Arial,sans-serif" font-size="9.0" text-anchor="start" fill="#b00020" font-weight="bold">stud ends here</text><rect x="733.50" y="347.07" width="2.00" height="47.47" fill="#b8860b" fill-opacity="0.22"/><line x1="689.66" y1="354.70" x2="711.51" y2="354.70" stroke="#b00020" stroke-width="1.2"/><line x1="689.66" y1="386.90" x2="711.51" y2="386.90" stroke="#b00020" stroke-width="1.2"/><rect x="709.01" y="345.24" width="5" height="9.46" fill="#f0a202"/><rect x="709.01" y="386.90" width="5" height="9.46" fill="#f0a202"/><rect x="687.16" y="296.85" width="5" height="57.84" fill="#f0a202" fill-opacity="0.45"/><rect x="687.16" y="386.90" width="5" height="57.84" fill="#f0a202" fill-opacity="0.45"/><text x="918.00" y="294.80" font-family="Helvetica,Arial,sans-serif" font-size="9.5" text-anchor="start" fill="#6b757e" font-weight="bold">PARTS IN THIS STACK</text><rect x="918.0" y="300.8" width="11" height="11" fill="#e7b6dd" stroke="#14181c" stroke-width="0.8"/><text x="936.00" y="309.80" font-family="Helvetica,Arial,sans-serif" font-size="10.0" text-anchor="start" fill="#14181c" font-weight="bold">MAGNET pot</text><text x="936.00" y="322.80" font-family="Helvetica,Arial,sans-serif" font-size="9.0" text-anchor="start" fill="#6b757e" font-weight="normal">O32.15 x 7.94 mm</text><text x="1148.00" y="309.80" font-family="Helvetica,Arial,sans-serif" font-size="10.0" text-anchor="end" fill="#14181c" font-weight="bold">3506K64</text><text x="1148.00" y="322.80" font-family="Helvetica,Arial,sans-serif" font-size="8.5" text-anchor="end" fill="#6b757e" font-weight="normal">zinc case - never black</text><rect x="918.0" y="334.8" width="11" height="11" fill="#b9c2c9" stroke="#14181c" stroke-width="0.8"/><text x="936.00" y="343.80" font-family="Helvetica,Arial,sans-serif" font-size="10.0" text-anchor="start" fill="#14181c" font-weight="bold">PLATE</text><text x="936.00" y="356.80" font-family="Helvetica,Arial,sans-serif" font-size="9.0" text-anchor="start" fill="#6b757e" font-weight="normal">4.75 mm (0.187 in)</text><text x="1148.00" y="343.80" font-family="Helvetica,Arial,sans-serif" font-size="10.0" text-anchor="end" fill="#6b757e" font-weight="normal">this DXF</text><rect x="918.0" y="368.8" width="11" height="11" fill="#9aa6ae" stroke="#14181c" stroke-width="0.8"/><text x="936.00" y="377.80" font-family="Helvetica,Arial,sans-serif" font-size="10.0" text-anchor="start" fill="#14181c" font-weight="bold">NUT</text><text x="936.00" y="390.80" font-family="Helvetica,Arial,sans-serif" font-size="9.0" text-anchor="start" fill="#6b757e" font-weight="normal">11.11 mm AF x 5.16 mm</text><text x="1148.00" y="377.80" font-family="Helvetica,Arial,sans-serif" font-size="10.0" text-anchor="end" fill="#14181c" font-weight="bold">90101A230</text><text x="1148.00" y="390.80" font-family="Helvetica,Arial,sans-serif" font-size="8.5" text-anchor="end" fill="#b00020" font-weight="normal">PLAIN - no black stocked</text><line x1="808.00" y1="354.70" x2="808.00" y2="386.90" stroke="#b00020" stroke-width="0.9"/><line x1="804.00" y1="354.70" x2="812.00" y2="354.70" stroke="#b00020" stroke-width="1.1"/><line x1="804.00" y1="386.90" x2="812.00" y2="386.90" stroke="#b00020" stroke-width="1.1"/><text x="804.00" y="370.80" font-family="Helvetica,Arial,sans-serif" font-size="9.0" text-anchor="middle" fill="#b00020" font-weight="bold" transform="rotate(-90.0 804.00 370.80)">HOLE O7.0</text><line x1="848.00" y1="345.24" x2="848.00" y2="396.36" stroke="#8a5a00" stroke-width="0.9"/><line x1="844.00" y1="345.24" x2="852.00" y2="345.24" stroke="#8a5a00" stroke-width="1.1"/><line x1="844.00" y1="396.36" x2="852.00" y2="396.36" stroke="#8a5a00" stroke-width="1.1"/><text x="844.00" y="370.80" font-family="Helvetica,Arial,sans-serif" font-size="9.0" text-anchor="middle" fill="#8a5a00" font-weight="bold" transform="rotate(-90.0 844.00 370.80)">nut 11.11</text><line x1="892.00" y1="296.85" x2="892.00" y2="444.74" stroke="#6b757e" stroke-width="0.9"/><line x1="888.00" y1="296.85" x2="896.00" y2="296.85" stroke="#6b757e" stroke-width="1.1"/><line x1="888.00" y1="444.74" x2="896.00" y2="444.74" stroke="#6b757e" stroke-width="1.1"/><text x="888.00" y="370.80" font-family="Helvetica,Arial,sans-serif" font-size="9.0" text-anchor="middle" fill="#6b757e" font-weight="bold" transform="rotate(-90.0 888.00 370.80)">magnet O32.15</text><rect x="612.0" y="550.6" width="548.0" height="52" rx="3" fill="#f4f6f8"/><rect x="622.0" y="558.6" width="10" height="10" fill="#f0a202"/><text x="638.00" y="567.60" font-family="Helvetica,Arial,sans-serif" font-size="10.5" text-anchor="start" fill="#6b757e" font-weight="normal">bears on the plate over</text><text x="780.00" y="567.60" font-family="Helvetica,Arial,sans-serif" font-size="11.5" text-anchor="start" fill="#14181c" font-weight="bold">59 mm2 (0.09 in2)</text><text x="1148.00" y="567.60" font-family="Helvetica,Arial,sans-serif" font-size="9.5" text-anchor="end" fill="#6b757e" font-weight="normal">4.75 + 0.00 + 5.16 = 9.91 vs stud 9.53</text><text x="638.00" y="587.60" font-family="Helvetica,Arial,sans-serif" font-size="10.5" text-anchor="start" fill="#6b757e" font-weight="normal">contact pressure at magnet pull</text><text x="822.00" y="587.60" font-family="Helvetica,Arial,sans-serif" font-size="11.5" text-anchor="start" fill="#14181c" font-weight="bold">289 psi</text><text x="1148.00" y="587.60" font-family="Helvetica,Arial,sans-serif" font-size="9.5" text-anchor="end" fill="#14181c" font-weight="bold">locking: mechanical</text><rect x="40" y="636.0" width="1120.0" height="152" fill="#fff" stroke="#0a8f6f" stroke-width="1.6" rx="4"/><text x="56.00" y="656.00" font-family="Helvetica,Arial,sans-serif" font-size="13.5" text-anchor="start" fill="#0a8f6f" font-weight="bold">USE: THIN hex jam nut, 18-8 (McMaster 91847A029, 100/pk $6.75)</text><text x="56.00" y="678.00" font-family="Helvetica,Arial,sans-serif" font-size="11.5" text-anchor="start" fill="#6b757e" font-weight="normal">4.75 + 0.00 + 3.97 = 8.72 mm against a 9.53 mm stud: +0.81 mm to spare, 59 mm2 of bearing, locking none.</text><text x="56.00" y="698.00" font-family="Helvetica,Arial,sans-serif" font-size="11.5" text-anchor="start" fill="#6b757e" font-weight="normal">The stud length is an ESTIMATE (10 mm from two vendors' 32 x 18 mm overall figure; K&amp;J do not print it). A washer costs 1.6 mm here, which is why the specified stack has none.</text><text x="56.00" y="718.00" font-family="Helvetica,Arial,sans-serif" font-size="11.5" text-anchor="start" fill="#6b757e" font-weight="normal">No other mechanical-locking stack fits.</text><text x="56.00" y="736.00" font-family="Helvetica,Arial,sans-serif" font-size="11.5" text-anchor="start" fill="#6b757e" font-weight="normal">Bearing is harmless at every one of these: the plate is 36 ksi steel. The choice is thread length and locking, nothing else.</text><text x="56.00" y="756.00" font-family="Helvetica,Arial,sans-serif" font-size="11.0" text-anchor="start" fill="#6b757e" font-weight="normal">Fasteners are BLACK OXIDE where stocked - only the ARM nuts are visible, facing up against a textured-black arm.</text></svg>